<svg xmlns="http://www.w3.org/2000/svg" viewBox="0 0 772.27 177.04"><defs><style>.cls-1{fill:#42210b;}.cls-2{fill:#f7931e;}</style></defs><g id="Layer_2" data-name="Layer 2"><g id="Object"><rect class="cls-1" y="12.9" width="772.27" height="151.25"/><path class="cls-2" d="M63.29,32.65H47.9a13.36,13.36,0,0,1-4.17-.58,5.35,5.35,0,0,1-2.8-2.16,11.49,11.49,0,0,1-1.59-4.45,45.64,45.64,0,0,1-.5-7.48,45.64,45.64,0,0,1,.5-7.48A12.19,12.19,0,0,1,40.93,6a5.29,5.29,0,0,1,2.8-2.23,13.36,13.36,0,0,1,4.17-.58h74.93q15.53,0,26.68,3.31a50,50,0,0,1,18.33,9.42,36.79,36.79,0,0,1,10.57,14.67,51.57,51.57,0,0,1,3.38,19.06q0,12.23-6,20.49a42.58,42.58,0,0,1-16.11,13.16q15.26,4.17,24.09,14.09t8.85,27q0,12.38-4.1,21.57a40.35,40.35,0,0,1-12,15.46,53.09,53.09,0,0,1-19.34,9.35,100.92,100.92,0,0,1-26.25,3.09h-83a13.38,13.38,0,0,1-4.17-.57,5.46,5.46,0,0,1-2.8-2.16,11.48,11.48,0,0,1-1.59-4.46,56.2,56.2,0,0,1,0-15,12.32,12.32,0,0,1,1.59-4.53,5.34,5.34,0,0,1,2.8-2.23,13.38,13.38,0,0,1,4.17-.57H63.29Zm56.37,38.54q13.1,0,19.35-4.53t6.25-14.17q0-9.78-6.11-14.09t-19.49-4.32H99.24V71.19ZM126.85,143q14.39,0,21.15-5t6.75-15q0-10.78-6.83-15.82t-21.07-5H99.24V143Z"/><path class="cls-2" d="M244.06,32.65h-21a13.32,13.32,0,0,1-4.17-.58,5.38,5.38,0,0,1-2.81-2.16,11.34,11.34,0,0,1-1.58-4.45A44.55,44.55,0,0,1,214,18a44.55,44.55,0,0,1,.5-7.48A12,12,0,0,1,216.09,6a5.31,5.31,0,0,1,2.81-2.23,13.32,13.32,0,0,1,4.17-.58h88.3a13.36,13.36,0,0,1,4.17.58A5.29,5.29,0,0,1,318.34,6a12,12,0,0,1,1.58,4.53,44.4,44.4,0,0,1,.51,7.48,44.4,44.4,0,0,1-.51,7.48,11.34,11.34,0,0,1-1.58,4.45,5.35,5.35,0,0,1-2.8,2.16,13.36,13.36,0,0,1-4.17.58H280V143H330.5V98.08a7.16,7.16,0,0,1,4.31-7Q339.13,89,349.48,89a57.61,57.61,0,0,1,8.41.5,15.86,15.86,0,0,1,5.18,1.59,5.78,5.78,0,0,1,2.66,2.8,10.81,10.81,0,0,1,.72,4.17v66.44q0,5-2.16,7.19c-1.44,1.44-3.83,2.16-7.19,2.16h-134a13.34,13.34,0,0,1-4.17-.57,5.48,5.48,0,0,1-2.81-2.16,11.33,11.33,0,0,1-1.58-4.46,56.2,56.2,0,0,1,0-15,12.15,12.15,0,0,1,1.58-4.53A5.36,5.36,0,0,1,218.9,145a13.34,13.34,0,0,1,4.17-.57h21Z"/><path class="cls-2" d="M470.28,0a83.26,83.26,0,0,1,32.43,6.11,69.79,69.79,0,0,1,25,17.62,79.81,79.81,0,0,1,16.1,27.9q5.68,16.4,5.68,36.82t-5.68,37a79,79,0,0,1-16.1,27.82,70.79,70.79,0,0,1-25,17.62,88,88,0,0,1-64.86,0,70.66,70.66,0,0,1-25-17.62,79.17,79.17,0,0,1-16.11-27.82Q391,109,391,88.45t5.68-36.82a80,80,0,0,1,16.11-27.9,69.67,69.67,0,0,1,25-17.62A83.26,83.26,0,0,1,470.28,0Zm0,32.65q-20.28,0-30.49,14.45T429.58,88.45q0,26.89,10.21,41.41t30.49,14.53q20.28,0,30.49-14.53T511,88.45q0-26.9-10.21-41.35T470.28,32.65Z"/><path class="cls-2" d="M652.21,116.06a13.07,13.07,0,0,1-4.17-.58,5.41,5.41,0,0,1-2.81-2.15,11.55,11.55,0,0,1-1.58-4.46,44.55,44.55,0,0,1-.5-7.48,44.55,44.55,0,0,1,.5-7.48,12.2,12.2,0,0,1,1.58-4.53A5.36,5.36,0,0,1,648,87.15a13.38,13.38,0,0,1,4.17-.57h68.17a13.43,13.43,0,0,1,4.17.57,5.34,5.34,0,0,1,2.8,2.23,12,12,0,0,1,1.58,4.53,44.4,44.4,0,0,1,.51,7.48,44.4,44.4,0,0,1-.51,7.48,11.39,11.39,0,0,1-1.58,4.46,5.38,5.38,0,0,1-2.8,2.15,13.11,13.11,0,0,1-4.17.58h-4.46v37.25q0,7.19-5.18,9.92a117.43,117.43,0,0,1-29.63,10.43A158.06,158.06,0,0,1,648.32,177a82.41,82.41,0,0,1-32.43-6.19,70.66,70.66,0,0,1-25-17.62,79.17,79.17,0,0,1-16.11-27.82q-5.67-16.39-5.68-37t5.61-36.82a82.26,82.26,0,0,1,15.68-27.9A68.32,68.32,0,0,1,614.1,6.11,72.42,72.42,0,0,1,644,0q13.51,0,22.65,4.53A38.93,38.93,0,0,1,681.4,17V9.06a7.2,7.2,0,0,1,4.17-7Q689.74,0,699,0a48.41,48.41,0,0,1,7.62.5,13.13,13.13,0,0,1,4.74,1.59,5.9,5.9,0,0,1,2.45,2.8,10.81,10.81,0,0,1,.72,4.17V58.53a7.19,7.19,0,0,1-4.32,7q-4.3,2.08-14.66,2.08a56.29,56.29,0,0,1-8.42-.5,15.81,15.81,0,0,1-5.17-1.58,5.78,5.78,0,0,1-2.67-2.81,10.82,10.82,0,0,1-.71-4.17q0-12.08-7.34-19t-22.87-6.9q-20.27,0-30.48,14.45T607.63,88.45q0,26.89,10.93,41.41t31.2,14.53a103.47,103.47,0,0,0,30.2-4.32v-24Z"/></g></g></svg>